<?xml version="1.0" encoding="UTF-8"?>
<svg xmlns="http://www.w3.org/2000/svg" xmlns:xlink="http://www.w3.org/1999/xlink" width="40px" height="40px" viewBox="0 0 40 40" version="1.1">
<g id="surface1">
<path style=" stroke:none;fill-rule:nonzero;fill:currentColor;fill-opacity:1;" d="M 34.171875 14.152344 L 34.171875 5.863281 L 25.878906 5.863281 L 20.015625 0 L 14.152344 5.863281 L 5.863281 5.863281 L 5.863281 14.152344 L 0 20.015625 L 5.863281 25.878906 L 5.863281 34.171875 L 14.152344 34.171875 L 20.015625 40.03125 L 25.878906 34.171875 L 34.167969 34.171875 L 34.167969 25.878906 L 40.03125 20.015625 Z M 20.019531 30.945312 C 13.980469 30.945312 9.085938 26.050781 9.085938 20.015625 C 9.085938 13.976562 13.980469 9.082031 20.019531 9.082031 C 26.054688 9.082031 30.949219 13.976562 30.949219 20.015625 C 30.949219 26.054688 26.054688 30.949219 20.015625 30.949219 Z M 20.019531 30.945312 "/>
<path style=" stroke:none;fill-rule:nonzero;fill:currentColor;fill-opacity:1;" d="M 28.8125 20.015625 C 28.8125 24.875 24.875 28.8125 20.015625 28.8125 C 15.160156 28.8125 11.222656 24.875 11.222656 20.015625 C 11.222656 15.160156 15.160156 11.222656 20.015625 11.222656 C 24.875 11.222656 28.8125 15.160156 28.8125 20.015625 Z M 28.8125 20.015625 "/>
</g>
</svg>
